<svg width="25" height="25" viewBox="0 0 25 25" fill="none" xmlns="http://www.w3.org/2000/svg">
<g clip-path="url(#clip0_1_274)">
<path d="M0.5 12.02C0.5 6.5894 0.5 3.87413 2.18707 2.18707C3.87413 0.5 6.5894 0.5 12.02 0.5H12.98C18.4106 0.5 21.1259 0.5 22.813 2.18707C24.5 3.87413 24.5 6.5894 24.5 12.02V12.98C24.5 18.4106 24.5 21.1259 22.813 22.813C21.1259 24.5 18.4106 24.5 12.98 24.5H12.02C6.5894 24.5 3.87413 24.5 2.18707 22.813C0.5 21.1259 0.5 18.4106 0.5 12.98V12.02Z" fill="#0077FF"/>
<path d="M13.27 17.79C7.8 17.79 4.68005 14.04 4.55005 7.80005H7.29005C7.38005 12.38 9.4 14.32 11 14.72V7.80005H13.5801V11.75C15.1601 11.58 16.8199 9.78005 17.3799 7.80005H19.9599C19.5299 10.24 17.7299 12.04 16.4499 12.78C17.7299 13.38 19.78 14.95 20.56 17.79H17.7199C17.1099 15.89 15.5901 14.42 13.5801 14.22V17.79H13.27Z" fill="white"/>
</g>
<defs>
<clipPath id="clip0_1_274">
<rect width="24" height="24" fill="white" transform="translate(0.5 0.5)"/>
</clipPath>
</defs>
</svg>
