<svg width="24" height="25" viewBox="0 0 24 25" fill="none" xmlns="http://www.w3.org/2000/svg">
<g clip-path="url(#clip0_1_280)">
<path d="M23.522 6.68547C23.3863 6.17489 23.1189 5.70889 22.7465 5.33413C22.3741 4.95936 21.9099 4.68897 21.4002 4.55002C19.5238 4.04547 12.0238 4.04547 12.0238 4.04547C12.0238 4.04547 4.5238 4.04547 2.64744 4.55002C2.13773 4.68897 1.67346 4.95936 1.30109 5.33413C0.92872 5.70889 0.661309 6.17489 0.525622 6.68547C0.0238038 8.57002 0.0238037 12.5 0.0238037 12.5C0.0238037 12.5 0.0238038 16.43 0.525622 18.3146C0.661309 18.8251 0.92872 19.2911 1.30109 19.6659C1.67346 20.0407 2.13773 20.3111 2.64744 20.45C4.5238 20.9546 12.0238 20.9546 12.0238 20.9546C12.0238 20.9546 19.5238 20.9546 21.4002 20.45C21.9099 20.3111 22.3741 20.0407 22.7465 19.6659C23.1189 19.2911 23.3863 18.8251 23.522 18.3146C24.0238 16.43 24.0238 12.5 24.0238 12.5C24.0238 12.5 24.0238 8.57002 23.522 6.68547Z" fill="#FF0302"/>
<path d="M9.56927 16.0687V8.9314L15.842 12.5L9.56927 16.0687Z" fill="#FEFEFE"/>
</g>
<defs>
<clipPath id="clip0_1_280">
<rect width="24" height="24" fill="white" transform="translate(0 0.5)"/>
</clipPath>
</defs>
</svg>
